<?xml version="1.0" encoding="utf-8"?>
<svg xmlns="http://www.w3.org/2000/svg" xmlns:xlink="http://www.w3.org/1999/xlink" xml:space="preserve" width="792" height="792" viewBox="0 0 792 792"><rect width="792" height="792" fill="#ffffff" x="0" y="0"/><g fill="#000000">
<g transform="translate(264,48) scale(4.12)"><circle cx="3" cy="3" r="3"/></g>
<g transform="translate(432,48) scale(4.12)"><path d="M6,6H0V3c0-1.7,1.3-3,3-3l3,0V6z"/></g>
<g transform="translate(456,48) scale(4.12)"><rect width="6" height="6"/></g>
<g transform="translate(480,48) scale(4.12)"><rect width="6" height="6"/></g>
<g transform="translate(504,48) scale(4.12)"><rect width="6" height="6"/></g>
<g transform="translate(528,48) scale(4.12)"><path d="M6,6H0V0l3,0c1.7,0,3,1.3,3,3V6z"/></g>
<g transform="translate(360,72) scale(4.12)"><circle cx="3" cy="3" r="3"/></g>
<g transform="translate(408,72) scale(4.12)"><path d="M6,6H0V3c0-1.7,1.3-3,3-3l3,0V6z"/></g>
<g transform="translate(432,72) scale(4.12)"><rect width="6" height="6"/></g>
<g transform="translate(528,72) scale(4.12)"><path d="M0,0l0.4,1.3c0.4,1.1,0.4,2.4,0,3.5L0,6c3.3,0,6-2.7,6-6H0z"/></g>
<g transform="translate(240,96) scale(4.12)"><path d="M6,6H0V3c0-1.7,1.3-3,3-3l3,0V6z"/></g>
<g transform="translate(264,96) scale(4.12)"><rect width="6" height="6"/></g>
<g transform="translate(288,96) scale(4.12)"><path d="M0,0v6l1.3-0.4c1.1-0.4,2.4-0.4,3.5,0L6,6C6,2.7,3.3,0,0,0z"/></g>
<g transform="translate(408,96) scale(4.12)"><rect width="6" height="6"/></g>
<g transform="translate(432,96) scale(4.12)"><rect width="6" height="6"/></g>
<g transform="translate(480,96) scale(4.12)"><path d="M4.7,0.4c-1.1,0.4-2.4,0.4-3.5,0L0,0c0,3.3,2.7,6,6,6V0L4.7,0.4z"/></g>
<g transform="translate(504,96) scale(4.12)"><path d="M0,0v6l1.3-0.4c1.1-0.4,2.4-0.4,3.5,0L6,6C6,2.7,3.3,0,0,0z"/></g>
<g transform="translate(240,120) scale(4.12)"><rect width="6" height="6"/></g>
<g transform="translate(312,120) scale(4.12)"><path d="M4.7,0.4c-1.1,0.4-2.4,0.4-3.5,0L0,0c0,3.3,2.7,6,6,6V0L4.7,0.4z"/></g>
<g transform="translate(336,120) scale(4.12)"><rect width="6" height="6"/></g>
<g transform="translate(360,120) scale(4.12)"><path d="M6,6H0V0l3,0c1.7,0,3,1.3,3,3V6z"/></g>
<g transform="translate(408,120) scale(4.12)"><path d="M6,6H3C1.3,6,0,4.7,0,3V0l6,0V6z"/></g>
<g transform="translate(432,120) scale(4.12)"><rect width="6" height="6"/></g>
<g transform="translate(456,120) scale(4.12)"><path d="M0,0v6l1.3-0.4c1.1-0.4,2.4-0.4,3.5,0L6,6C6,2.7,3.3,0,0,0z"/></g>
<g transform="translate(240,144) scale(4.12)"><rect width="6" height="6"/></g>
<g transform="translate(264,144) scale(4.12)"><path d="M6,6H0V0l3,0c1.7,0,3,1.3,3,3V6z"/></g>
<g transform="translate(360,144) scale(4.12)"><rect width="6" height="6"/></g>
<g transform="translate(432,144) scale(4.12)"><path d="M0,0l0.4,1.3c0.4,1.1,0.4,2.4,0,3.5L0,6c3.3,0,6-2.7,6-6H0z"/></g>
<g transform="translate(504,144) scale(4.12)"><path d="M4.7,0.4c-1.1,0.4-2.4,0.4-3.5,0L0,0c0,3.3,2.7,6,6,6V0L4.7,0.4z"/></g>
<g transform="translate(528,144) scale(4.12)"><path d="M6,6H0V0l3,0c1.7,0,3,1.3,3,3V6z"/></g>
<g transform="translate(240,168) scale(4.12)"><rect width="6" height="6"/></g>
<g transform="translate(264,168) scale(4.12)"><rect width="6" height="6"/></g>
<g transform="translate(288,168) scale(4.12)"><path d="M6,6H0V0l3,0c1.7,0,3,1.3,3,3V6z"/></g>
<g transform="translate(360,168) scale(4.12)"><path d="M6,6H3C1.3,6,0,4.7,0,3V0l6,0V6z"/></g>
<g transform="translate(384,168) scale(4.12)"><rect width="6" height="6"/></g>
<g transform="translate(408,168) scale(4.12)"><path d="M0,0v6l1.3-0.4c1.1-0.4,2.4-0.4,3.5,0L6,6C6,2.7,3.3,0,0,0z"/></g>
<g transform="translate(528,168) scale(4.12)"><rect width="6" height="6"/></g>
<g transform="translate(240,192) scale(4.12)"><rect width="6" height="6"/></g>
<g transform="translate(288,192) scale(4.12)"><path d="M0,0l0.4,1.3c0.4,1.1,0.4,2.4,0,3.5L0,6c3.3,0,6-2.7,6-6H0z"/></g>
<g transform="translate(336,192) scale(4.12)"><circle cx="3" cy="3" r="3"/></g>
<g transform="translate(384,192) scale(4.12)"><path d="M0,0l0.4,1.3c0.4,1.1,0.4,2.4,0,3.5L0,6c3.3,0,6-2.7,6-6H0z"/></g>
<g transform="translate(432,192) scale(4.12)"><circle cx="3" cy="3" r="3"/></g>
<g transform="translate(480,192) scale(4.12)"><circle cx="3" cy="3" r="3"/></g>
<g transform="translate(528,192) scale(4.12)"><rect width="6" height="6"/></g>
<g transform="translate(240,216) scale(4.12)"><path d="M6,6H3C1.3,6,0,4.7,0,3V0l6,0V6z"/></g>
<g transform="translate(264,216) scale(4.12)"><path d="M6,6H0V0l3,0c1.7,0,3,1.3,3,3V6z"/></g>
<g transform="translate(312,216) scale(4.12)"><path d="M6,6H0v0c0-3.3,2.7-6,6-6h0L5.6,1.3c-0.4,1.1-0.4,2.4,0,3.5L6,6z"/></g>
<g transform="translate(408,216) scale(4.12)"><circle cx="3" cy="3" r="3"/></g>
<g transform="translate(528,216) scale(4.12)"><path d="M0,0l0.4,1.3c0.4,1.1,0.4,2.4,0,3.5L0,6c3.3,0,6-2.7,6-6H0z"/></g>
<g transform="translate(48,240) scale(4.12)"><path d="M6,6H0v0c0-3.3,2.7-6,6-6h0L5.6,1.3c-0.4,1.1-0.4,2.4,0,3.5L6,6z"/></g>
<g transform="translate(96,240) scale(4.12)"><path d="M6,6H0V3c0-1.7,1.3-3,3-3l3,0V6z"/></g>
<g transform="translate(120,240) scale(4.12)"><rect width="6" height="6"/></g>
<g transform="translate(144,240) scale(4.12)"><rect width="6" height="6"/></g>
<g transform="translate(168,240) scale(4.12)"><rect width="6" height="6"/></g>
<g transform="translate(192,240) scale(4.12)"><path d="M0,0v6l1.3-0.4c1.1-0.4,2.4-0.4,3.5,0L6,6C6,2.7,3.3,0,0,0z"/></g>
<g transform="translate(264,240) scale(4.12)"><rect width="6" height="6"/></g>
<g transform="translate(288,240) scale(4.12)"><rect width="6" height="6"/></g>
<g transform="translate(312,240) scale(4.12)"><rect width="6" height="6"/></g>
<g transform="translate(336,240) scale(4.12)"><rect width="6" height="6"/></g>
<g transform="translate(360,240) scale(4.12)"><rect width="6" height="6"/></g>
<g transform="translate(384,240) scale(4.12)"><path d="M0,0v6l1.3-0.4c1.1-0.4,2.4-0.4,3.5,0L6,6C6,2.7,3.3,0,0,0z"/></g>
<g transform="translate(456,240) scale(4.12)"><circle cx="3" cy="3" r="3"/></g>
<g transform="translate(504,240) scale(4.12)"><path d="M6,6H0v0c0-3.3,2.7-6,6-6h0L5.6,1.3c-0.4,1.1-0.4,2.4,0,3.5L6,6z"/></g>
<g transform="translate(576,240) scale(4.12)"><path d="M6,6H0V3c0-1.7,1.3-3,3-3l3,0V6z"/></g>
<g transform="translate(600,240) scale(4.12)"><rect width="6" height="6"/></g>
<g transform="translate(624,240) scale(4.12)"><rect width="6" height="6"/></g>
<g transform="translate(648,240) scale(4.12)"><rect width="6" height="6"/></g>
<g transform="translate(672,240) scale(4.12)"><path d="M0,0v6l1.3-0.4c1.1-0.4,2.4-0.4,3.5,0L6,6C6,2.7,3.3,0,0,0z"/></g>
<g transform="translate(48,264) scale(4.12)"><rect width="6" height="6"/></g>
<g transform="translate(96,264) scale(4.12)"><rect width="6" height="6"/></g>
<g transform="translate(120,264) scale(4.12)"><rect width="6" height="6"/></g>
<g transform="translate(144,264) scale(4.12)"><rect width="6" height="6"/></g>
<g transform="translate(240,264) scale(4.12)"><path d="M4.7,0.4c-1.1,0.4-2.4,0.4-3.5,0L0,0c0,3.3,2.7,6,6,6V0L4.7,0.4z"/></g>
<g transform="translate(264,264) scale(4.12)"><rect width="6" height="6"/></g>
<g transform="translate(288,264) scale(4.12)"><rect width="6" height="6"/></g>
<g transform="translate(312,264) scale(4.12)"><rect width="6" height="6"/></g>
<g transform="translate(336,264) scale(4.12)"><rect width="6" height="6"/></g>
<g transform="translate(360,264) scale(4.12)"><path d="M3,6H0V0l6,0v3C6,4.7,4.7,6,3,6z"/></g>
<g transform="translate(432,264) scale(4.12)"><circle cx="3" cy="3" r="3"/></g>
<g transform="translate(480,264) scale(4.12)"><path d="M6,6H0V3c0-1.7,1.3-3,3-3l3,0V6z"/></g>
<g transform="translate(504,264) scale(4.12)"><path d="M3,6H0V0l6,0v3C6,4.7,4.7,6,3,6z"/></g>
<g transform="translate(552,264) scale(4.12)"><path d="M6,6H0V3c0-1.7,1.3-3,3-3l3,0V6z"/></g>
<g transform="translate(576,264) scale(4.12)"><rect width="6" height="6"/></g>
<g transform="translate(600,264) scale(4.12)"><rect width="6" height="6"/></g>
<g transform="translate(624,264) scale(4.12)"><rect width="6" height="6"/></g>
<g transform="translate(720,264) scale(4.12)"><circle cx="3" cy="3" r="3"/></g>
<g transform="translate(48,288) scale(4.12)"><rect width="6" height="6"/></g>
<g transform="translate(72,288) scale(4.12)"><rect width="6" height="6"/></g>
<g transform="translate(96,288) scale(4.12)"><rect width="6" height="6"/></g>
<g transform="translate(144,288) scale(4.12)"><path d="M0,0l0.4,1.3c0.4,1.1,0.4,2.4,0,3.5L0,6c3.3,0,6-2.7,6-6H0z"/></g>
<g transform="translate(192,288) scale(4.12)"><path d="M4.7,0.4c-1.1,0.4-2.4,0.4-3.5,0L0,0c0,3.3,2.7,6,6,6V0L4.7,0.4z"/></g>
<g transform="translate(216,288) scale(4.12)"><path d="M6,6H0V0l3,0c1.7,0,3,1.3,3,3V6z"/></g>
<g transform="translate(264,288) scale(4.12)"><path d="M0,0l0.4,1.3c0.4,1.1,0.4,2.4,0,3.5L0,6c3.3,0,6-2.7,6-6H0z"/></g>
<g transform="translate(312,288) scale(4.12)"><path d="M0,0l0.4,1.3c0.4,1.1,0.4,2.4,0,3.5L0,6c3.3,0,6-2.7,6-6H0z"/></g>
<g transform="translate(408,288) scale(4.12)"><path d="M6,6H0v0c0-3.3,2.7-6,6-6h0L5.6,1.3c-0.4,1.1-0.4,2.4,0,3.5L6,6z"/></g>
<g transform="translate(456,288) scale(4.12)"><path d="M4.7,0.4c-1.1,0.4-2.4,0.4-3.5,0L0,0c0,3.3,2.7,6,6,6V0L4.7,0.4z"/></g>
<g transform="translate(480,288) scale(4.12)"><rect width="6" height="6"/></g>
<g transform="translate(552,288) scale(4.12)"><path d="M0,0l0.4,1.3c0.4,1.1,0.4,2.4,0,3.5L0,6c3.3,0,6-2.7,6-6H0z"/></g>
<g transform="translate(624,288) scale(4.12)"><path d="M0,0l0.4,1.3c0.4,1.1,0.4,2.4,0,3.5L0,6c3.3,0,6-2.7,6-6H0z"/></g>
<g transform="translate(48,312) scale(4.12)"><rect width="6" height="6"/></g>
<g transform="translate(96,312) scale(4.12)"><path d="M6,6H3C1.3,6,0,4.7,0,3V0l6,0V6z"/></g>
<g transform="translate(120,312) scale(4.12)"><path d="M6,6H0V0l3,0c1.7,0,3,1.3,3,3V6z"/></g>
<g transform="translate(216,312) scale(4.12)"><rect width="6" height="6"/></g>
<g transform="translate(336,312) scale(4.12)"><path d="M6,6H0v0c0-3.3,2.7-6,6-6h0L5.6,1.3c-0.4,1.1-0.4,2.4,0,3.5L6,6z"/></g>
<g transform="translate(384,312) scale(4.12)"><path d="M6,6H0V3c0-1.7,1.3-3,3-3l3,0V6z"/></g>
<g transform="translate(408,312) scale(4.12)"><rect width="6" height="6"/></g>
<g transform="translate(432,312) scale(4.12)"><path d="M6,6H0V0l3,0c1.7,0,3,1.3,3,3V6z"/></g>
<g transform="translate(480,312) scale(4.12)"><rect width="6" height="6"/></g>
<g transform="translate(600,312) scale(4.12)"><circle cx="3" cy="3" r="3"/></g>
<g transform="translate(648,312) scale(4.12)"><path d="M6,6H0v0c0-3.3,2.7-6,6-6h0L5.6,1.3c-0.4,1.1-0.4,2.4,0,3.5L6,6z"/></g>
<g transform="translate(696,312) scale(4.12)"><circle cx="3" cy="3" r="3"/></g>
<g transform="translate(48,336) scale(4.12)"><path d="M0,0l0.4,1.3c0.4,1.1,0.4,2.4,0,3.5L0,6c3.3,0,6-2.7,6-6H0z"/></g>
<g transform="translate(120,336) scale(4.12)"><rect width="6" height="6"/></g>
<g transform="translate(192,336) scale(4.12)"><path d="M4.7,0.4c-1.1,0.4-2.4,0.4-3.5,0L0,0c0,3.3,2.7,6,6,6V0L4.7,0.4z"/></g>
<g transform="translate(216,336) scale(4.12)"><rect width="6" height="6"/></g>
<g transform="translate(264,336) scale(4.12)"><path d="M4.7,0.4c-1.1,0.4-2.4,0.4-3.5,0L0,0c0,3.3,2.7,6,6,6V0L4.7,0.4z"/></g>
<g transform="translate(288,336) scale(4.12)"><path d="M6,6H0V0l3,0c1.7,0,3,1.3,3,3V6z"/></g>
<g transform="translate(336,336) scale(4.12)"><path d="M6,6H3C1.3,6,0,4.7,0,3V0l6,0V6z"/></g>
<g transform="translate(360,336) scale(4.12)"><rect width="6" height="6"/></g>
<g transform="translate(384,336) scale(4.12)"><rect width="6" height="6"/></g>
<g transform="translate(408,336) scale(4.12)"><rect width="6" height="6"/></g>
<g transform="translate(432,336) scale(4.12)"><rect width="6" height="6"/></g>
<g transform="translate(456,336) scale(4.12)"><rect width="6" height="6"/></g>
<g transform="translate(480,336) scale(4.12)"><rect width="6" height="6"/></g>
<g transform="translate(504,336) scale(4.12)"><path d="M6,6H0V0l3,0c1.7,0,3,1.3,3,3V6z"/></g>
<g transform="translate(648,336) scale(4.12)"><path d="M6,6H3C1.3,6,0,4.7,0,3V0l6,0V6z"/></g>
<g transform="translate(672,336) scale(4.12)"><path d="M0,0v6l1.3-0.4c1.1-0.4,2.4-0.4,3.5,0L6,6C6,2.7,3.3,0,0,0z"/></g>
<g transform="translate(72,360) scale(4.12)"><path d="M4.7,0.4c-1.1,0.4-2.4,0.4-3.5,0L0,0c0,3.3,2.7,6,6,6V0L4.7,0.4z"/></g>
<g transform="translate(96,360) scale(4.12)"><rect width="6" height="6"/></g>
<g transform="translate(120,360) scale(4.12)"><rect width="6" height="6"/></g>
<g transform="translate(216,360) scale(4.12)"><path d="M6,6H3C1.3,6,0,4.7,0,3V0l6,0V6z"/></g>
<g transform="translate(240,360) scale(4.12)"><path d="M0,0v6l1.3-0.4c1.1-0.4,2.4-0.4,3.5,0L6,6C6,2.7,3.3,0,0,0z"/></g>
<g transform="translate(288,360) scale(4.12)"><rect width="6" height="6"/></g>
<g transform="translate(312,360) scale(4.12)"><path d="M6,6H0V0l3,0c1.7,0,3,1.3,3,3V6z"/></g>
<g transform="translate(360,360) scale(4.12)"><rect width="6" height="6"/></g>
<g transform="translate(432,360) scale(4.12)"><rect width="6" height="6"/></g>
<g transform="translate(456,360) scale(4.12)"><rect width="6" height="6"/></g>
<g transform="translate(480,360) scale(4.12)"><rect width="6" height="6"/></g>
<g transform="translate(504,360) scale(4.12)"><rect width="6" height="6"/></g>
<g transform="translate(528,360) scale(4.12)"><path d="M6,6H0V0l3,0c1.7,0,3,1.3,3,3V6z"/></g>
<g transform="translate(576,360) scale(4.12)"><path d="M4.7,0.4c-1.1,0.4-2.4,0.4-3.5,0L0,0c0,3.3,2.7,6,6,6V0L4.7,0.4z"/></g>
<g transform="translate(600,360) scale(4.12)"><rect width="6" height="6"/></g>
<g transform="translate(624,360) scale(4.12)"><path d="M6,6H0V0l3,0c1.7,0,3,1.3,3,3V6z"/></g>
<g transform="translate(720,360) scale(4.12)"><circle cx="3" cy="3" r="3"/></g>
<g transform="translate(120,384) scale(4.12)"><rect width="6" height="6"/></g>
<g transform="translate(144,384) scale(4.12)"><path d="M6,6H0V0l3,0c1.7,0,3,1.3,3,3V6z"/></g>
<g transform="translate(192,384) scale(4.12)"><circle cx="3" cy="3" r="3"/></g>
<g transform="translate(264,384) scale(4.12)"><path d="M4.7,0.4c-1.1,0.4-2.4,0.4-3.5,0L0,0c0,3.3,2.7,6,6,6V0L4.7,0.4z"/></g>
<g transform="translate(288,384) scale(4.12)"><rect width="6" height="6"/></g>
<g transform="translate(312,384) scale(4.12)"><rect width="6" height="6"/></g>
<g transform="translate(360,384) scale(4.12)"><path d="M6,6H3C1.3,6,0,4.7,0,3V0l6,0V6z"/></g>
<g transform="translate(384,384) scale(4.12)"><rect width="6" height="6"/></g>
<g transform="translate(408,384) scale(4.12)"><rect width="6" height="6"/></g>
<g transform="translate(432,384) scale(4.12)"><path d="M3,6H0V0l6,0v3C6,4.7,4.7,6,3,6z"/></g>
<g transform="translate(528,384) scale(4.12)"><path d="M6,6H3C1.3,6,0,4.7,0,3V0l6,0V6z"/></g>
<g transform="translate(552,384) scale(4.12)"><path d="M6,6H0V0l3,0c1.7,0,3,1.3,3,3V6z"/></g>
<g transform="translate(624,384) scale(4.12)"><path d="M6,6H3C1.3,6,0,4.7,0,3V0l6,0V6z"/></g>
<g transform="translate(648,384) scale(4.12)"><rect width="6" height="6"/></g>
<g transform="translate(672,384) scale(4.12)"><path d="M0,0v6l1.3-0.4c1.1-0.4,2.4-0.4,3.5,0L6,6C6,2.7,3.3,0,0,0z"/></g>
<g transform="translate(48,408) scale(4.12)"><path d="M6,6H0v0c0-3.3,2.7-6,6-6h0L5.6,1.3c-0.4,1.1-0.4,2.4,0,3.5L6,6z"/></g>
<g transform="translate(96,408) scale(4.12)"><path d="M6,6H0V3c0-1.7,1.3-3,3-3l3,0V6z"/></g>
<g transform="translate(120,408) scale(4.12)"><rect width="6" height="6"/></g>
<g transform="translate(144,408) scale(4.12)"><rect width="6" height="6"/></g>
<g transform="translate(216,408) scale(4.12)"><path d="M6,6H0V3c0-1.7,1.3-3,3-3l3,0V6z"/></g>
<g transform="translate(240,408) scale(4.12)"><path d="M6,6H0V0l3,0c1.7,0,3,1.3,3,3V6z"/></g>
<g transform="translate(312,408) scale(4.12)"><rect width="6" height="6"/></g>
<g transform="translate(384,408) scale(4.12)"><path d="M6,6H3C1.3,6,0,4.7,0,3V0l6,0V6z"/></g>
<g transform="translate(408,408) scale(4.12)"><path d="M3,6H0V0l6,0v3C6,4.7,4.7,6,3,6z"/></g>
<g transform="translate(504,408) scale(4.12)"><circle cx="3" cy="3" r="3"/></g>
<g transform="translate(552,408) scale(4.12)"><rect width="6" height="6"/></g>
<g transform="translate(576,408) scale(4.12)"><rect width="6" height="6"/></g>
<g transform="translate(600,408) scale(4.12)"><path d="M0,0v6l1.3-0.4c1.1-0.4,2.4-0.4,3.5,0L6,6C6,2.7,3.3,0,0,0z"/></g>
<g transform="translate(696,408) scale(4.12)"><circle cx="3" cy="3" r="3"/></g>
<g transform="translate(48,432) scale(4.12)"><rect width="6" height="6"/></g>
<g transform="translate(72,432) scale(4.12)"><rect width="6" height="6"/></g>
<g transform="translate(96,432) scale(4.12)"><rect width="6" height="6"/></g>
<g transform="translate(120,432) scale(4.12)"><rect width="6" height="6"/></g>
<g transform="translate(144,432) scale(4.12)"><rect width="6" height="6"/></g>
<g transform="translate(192,432) scale(4.12)"><path d="M4.7,0.4c-1.1,0.4-2.4,0.4-3.5,0L0,0c0,3.3,2.7,6,6,6V0L4.7,0.4z"/></g>
<g transform="translate(216,432) scale(4.12)"><rect width="6" height="6"/></g>
<g transform="translate(240,432) scale(4.12)"><path d="M3,6H0V0l6,0v3C6,4.7,4.7,6,3,6z"/></g>
<g transform="translate(312,432) scale(4.12)"><rect width="6" height="6"/></g>
<g transform="translate(360,432) scale(4.12)"><path d="M6,6H0v0c0-3.3,2.7-6,6-6h0L5.6,1.3c-0.4,1.1-0.4,2.4,0,3.5L6,6z"/></g>
<g transform="translate(456,432) scale(4.12)"><circle cx="3" cy="3" r="3"/></g>
<g transform="translate(552,432) scale(4.12)"><rect width="6" height="6"/></g>
<g transform="translate(648,432) scale(4.12)"><path d="M4.7,0.4c-1.1,0.4-2.4,0.4-3.5,0L0,0c0,3.3,2.7,6,6,6V0L4.7,0.4z"/></g>
<g transform="translate(672,432) scale(4.12)"><path d="M6,6H0V0l3,0c1.7,0,3,1.3,3,3V6z"/></g>
<g transform="translate(48,456) scale(4.12)"><rect width="6" height="6"/></g>
<g transform="translate(72,456) scale(4.12)"><path d="M3,6H0V0l6,0v3C6,4.7,4.7,6,3,6z"/></g>
<g transform="translate(120,456) scale(4.12)"><path d="M6,6H3C1.3,6,0,4.7,0,3V0l6,0V6z"/></g>
<g transform="translate(144,456) scale(4.12)"><rect width="6" height="6"/></g>
<g transform="translate(288,456) scale(4.12)"><path d="M4.7,0.4c-1.1,0.4-2.4,0.4-3.5,0L0,0c0,3.3,2.7,6,6,6V0L4.7,0.4z"/></g>
<g transform="translate(312,456) scale(4.12)"><path d="M3,6H0V0l6,0v3C6,4.7,4.7,6,3,6z"/></g>
<g transform="translate(360,456) scale(4.12)"><rect width="6" height="6"/></g>
<g transform="translate(432,456) scale(4.12)"><path d="M6,6H0v0c0-3.3,2.7-6,6-6h0L5.6,1.3c-0.4,1.1-0.4,2.4,0,3.5L6,6z"/></g>
<g transform="translate(504,456) scale(4.12)"><path d="M4.7,0.4c-1.1,0.4-2.4,0.4-3.5,0L0,0c0,3.3,2.7,6,6,6V0L4.7,0.4z"/></g>
<g transform="translate(528,456) scale(4.12)"><rect width="6" height="6"/></g>
<g transform="translate(552,456) scale(4.12)"><rect width="6" height="6"/></g>
<g transform="translate(576,456) scale(4.12)"><rect width="6" height="6"/></g>
<g transform="translate(600,456) scale(4.12)"><rect width="6" height="6"/></g>
<g transform="translate(624,456) scale(4.12)"><path d="M0,0v6l1.3-0.4c1.1-0.4,2.4-0.4,3.5,0L6,6C6,2.7,3.3,0,0,0z"/></g>
<g transform="translate(672,456) scale(4.12)"><rect width="6" height="6"/></g>
<g transform="translate(720,456) scale(4.12)"><circle cx="3" cy="3" r="3"/></g>
<g transform="translate(48,480) scale(4.12)"><rect width="6" height="6"/></g>
<g transform="translate(144,480) scale(4.12)"><path d="M6,6H3C1.3,6,0,4.7,0,3V0l6,0V6z"/></g>
<g transform="translate(168,480) scale(4.12)"><rect width="6" height="6"/></g>
<g transform="translate(192,480) scale(4.12)"><rect width="6" height="6"/></g>
<g transform="translate(216,480) scale(4.12)"><path d="M6,6H0V0l3,0c1.7,0,3,1.3,3,3V6z"/></g>
<g transform="translate(336,480) scale(4.12)"><path d="M6,6H0V3c0-1.7,1.3-3,3-3l3,0V6z"/></g>
<g transform="translate(360,480) scale(4.12)"><rect width="6" height="6"/></g>
<g transform="translate(384,480) scale(4.12)"><rect width="6" height="6"/></g>
<g transform="translate(408,480) scale(4.12)"><rect width="6" height="6"/></g>
<g transform="translate(432,480) scale(4.12)"><rect width="6" height="6"/></g>
<g transform="translate(576,480) scale(4.12)"><path d="M6,6H3C1.3,6,0,4.7,0,3V0l6,0V6z"/></g>
<g transform="translate(600,480) scale(4.12)"><rect width="6" height="6"/></g>
<g transform="translate(672,480) scale(4.12)"><path d="M0,0l0.4,1.3c0.4,1.1,0.4,2.4,0,3.5L0,6c3.3,0,6-2.7,6-6H0z"/></g>
<g transform="translate(48,504) scale(4.12)"><rect width="6" height="6"/></g>
<g transform="translate(120,504) scale(4.12)"><path d="M6,6H0v0c0-3.3,2.7-6,6-6h0L5.6,1.3c-0.4,1.1-0.4,2.4,0,3.5L6,6z"/></g>
<g transform="translate(216,504) scale(4.12)"><path d="M0,0l0.4,1.3c0.4,1.1,0.4,2.4,0,3.5L0,6c3.3,0,6-2.7,6-6H0z"/></g>
<g transform="translate(336,504) scale(4.12)"><path d="M0,0l0.4,1.3c0.4,1.1,0.4,2.4,0,3.5L0,6c3.3,0,6-2.7,6-6H0z"/></g>
<g transform="translate(384,504) scale(4.12)"><path d="M0,0l0.4,1.3c0.4,1.1,0.4,2.4,0,3.5L0,6c3.3,0,6-2.7,6-6H0z"/></g>
<g transform="translate(432,504) scale(4.12)"><path d="M0,0l0.4,1.3c0.4,1.1,0.4,2.4,0,3.5L0,6c3.3,0,6-2.7,6-6H0z"/></g>
<g transform="translate(504,504) scale(4.12)"><path d="M6,6H0V3c0-1.7,1.3-3,3-3l3,0V6z"/></g>
<g transform="translate(528,504) scale(4.12)"><path d="M6,6H0V0l3,0c1.7,0,3,1.3,3,3V6z"/></g>
<g transform="translate(600,504) scale(4.12)"><rect width="6" height="6"/></g>
<g transform="translate(696,504) scale(4.12)"><path d="M6,6H0v0c0-3.3,2.7-6,6-6h0L5.6,1.3c-0.4,1.1-0.4,2.4,0,3.5L6,6z"/></g>
<g transform="translate(48,528) scale(4.12)"><path d="M0,0l0.4,1.3c0.4,1.1,0.4,2.4,0,3.5L0,6c3.3,0,6-2.7,6-6H0z"/></g>
<g transform="translate(120,528) scale(4.12)"><path d="M6,6H3C1.3,6,0,4.7,0,3V0l6,0V6z"/></g>
<g transform="translate(144,528) scale(4.12)"><path d="M0,0v6l1.3-0.4c1.1-0.4,2.4-0.4,3.5,0L6,6C6,2.7,3.3,0,0,0z"/></g>
<g transform="translate(192,528) scale(4.12)"><circle cx="3" cy="3" r="3"/></g>
<g transform="translate(264,528) scale(4.12)"><path d="M6,6H0v0c0-3.3,2.7-6,6-6h0L5.6,1.3c-0.4,1.1-0.4,2.4,0,3.5L6,6z"/></g>
<g transform="translate(312,528) scale(4.12)"><circle cx="3" cy="3" r="3"/></g>
<g transform="translate(408,528) scale(4.12)"><circle cx="3" cy="3" r="3"/></g>
<g transform="translate(456,528) scale(4.12)"><circle cx="3" cy="3" r="3"/></g>
<g transform="translate(504,528) scale(4.12)"><path d="M6,6H3C1.3,6,0,4.7,0,3V0l6,0V6z"/></g>
<g transform="translate(528,528) scale(4.12)"><rect width="6" height="6"/></g>
<g transform="translate(552,528) scale(4.12)"><rect width="6" height="6"/></g>
<g transform="translate(576,528) scale(4.12)"><rect width="6" height="6"/></g>
<g transform="translate(600,528) scale(4.12)"><rect width="6" height="6"/></g>
<g transform="translate(624,528) scale(4.12)"><path d="M6,6H0V0l3,0c1.7,0,3,1.3,3,3V6z"/></g>
<g transform="translate(672,528) scale(4.12)"><path d="M6,6H0V3c0-1.7,1.3-3,3-3l3,0V6z"/></g>
<g transform="translate(696,528) scale(4.12)"><rect width="6" height="6"/></g>
<g transform="translate(720,528) scale(4.12)"><path d="M6,6H0V0l3,0c1.7,0,3,1.3,3,3V6z"/></g>
<g transform="translate(240,552) scale(4.12)"><path d="M4.7,0.4c-1.1,0.4-2.4,0.4-3.5,0L0,0c0,3.3,2.7,6,6,6V0L4.7,0.4z"/></g>
<g transform="translate(264,552) scale(4.12)"><rect width="6" height="6"/></g>
<g transform="translate(360,552) scale(4.12)"><path d="M6,6H0v0c0-3.3,2.7-6,6-6h0L5.6,1.3c-0.4,1.1-0.4,2.4,0,3.5L6,6z"/></g>
<g transform="translate(432,552) scale(4.12)"><circle cx="3" cy="3" r="3"/></g>
<g transform="translate(480,552) scale(4.12)"><path d="M6,6H0v0c0-3.3,2.7-6,6-6h0L5.6,1.3c-0.4,1.1-0.4,2.4,0,3.5L6,6z"/></g>
<g transform="translate(528,552) scale(4.12)"><rect width="6" height="6"/></g>
<g transform="translate(624,552) scale(4.12)"><rect width="6" height="6"/></g>
<g transform="translate(648,552) scale(4.12)"><rect width="6" height="6"/></g>
<g transform="translate(672,552) scale(4.12)"><rect width="6" height="6"/></g>
<g transform="translate(696,552) scale(4.12)"><rect width="6" height="6"/></g>
<g transform="translate(720,552) scale(4.12)"><path d="M3,6H0V0l6,0v3C6,4.7,4.7,6,3,6z"/></g>
<g transform="translate(264,576) scale(4.12)"><path d="M6,6H3C1.3,6,0,4.7,0,3V0l6,0V6z"/></g>
<g transform="translate(288,576) scale(4.12)"><path d="M6,6H0V0l3,0c1.7,0,3,1.3,3,3V6z"/></g>
<g transform="translate(360,576) scale(4.12)"><rect width="6" height="6"/></g>
<g transform="translate(384,576) scale(4.12)"><rect width="6" height="6"/></g>
<g transform="translate(408,576) scale(4.12)"><path d="M0,0v6l1.3-0.4c1.1-0.4,2.4-0.4,3.5,0L6,6C6,2.7,3.3,0,0,0z"/></g>
<g transform="translate(456,576) scale(4.12)"><path d="M4.7,0.4c-1.1,0.4-2.4,0.4-3.5,0L0,0c0,3.3,2.7,6,6,6V0L4.7,0.4z"/></g>
<g transform="translate(480,576) scale(4.12)"><rect width="6" height="6"/></g>
<g transform="translate(504,576) scale(4.12)"><rect width="6" height="6"/></g>
<g transform="translate(528,576) scale(4.12)"><rect width="6" height="6"/></g>
<g transform="translate(576,576) scale(4.12)"><circle cx="3" cy="3" r="3"/></g>
<g transform="translate(624,576) scale(4.12)"><rect width="6" height="6"/></g>
<g transform="translate(648,576) scale(4.12)"><rect width="6" height="6"/></g>
<g transform="translate(672,576) scale(4.12)"><path d="M3,6H0V0l6,0v3C6,4.7,4.7,6,3,6z"/></g>
<g transform="translate(240,600) scale(4.12)"><path d="M6,6H0v0c0-3.3,2.7-6,6-6h0L5.6,1.3c-0.4,1.1-0.4,2.4,0,3.5L6,6z"/></g>
<g transform="translate(288,600) scale(4.12)"><rect width="6" height="6"/></g>
<g transform="translate(312,600) scale(4.12)"><path d="M0,0v6l1.3-0.4c1.1-0.4,2.4-0.4,3.5,0L6,6C6,2.7,3.3,0,0,0z"/></g>
<g transform="translate(360,600) scale(4.12)"><path d="M0,0l0.4,1.3c0.4,1.1,0.4,2.4,0,3.5L0,6c3.3,0,6-2.7,6-6H0z"/></g>
<g transform="translate(432,600) scale(4.12)"><circle cx="3" cy="3" r="3"/></g>
<g transform="translate(504,600) scale(4.12)"><path d="M6,6H3C1.3,6,0,4.7,0,3V0l6,0V6z"/></g>
<g transform="translate(528,600) scale(4.12)"><rect width="6" height="6"/></g>
<g transform="translate(624,600) scale(4.12)"><rect width="6" height="6"/></g>
<g transform="translate(240,624) scale(4.12)"><rect width="6" height="6"/></g>
<g transform="translate(288,624) scale(4.12)"><path d="M0,0l0.4,1.3c0.4,1.1,0.4,2.4,0,3.5L0,6c3.3,0,6-2.7,6-6H0z"/></g>
<g transform="translate(336,624) scale(4.12)"><path d="M6,6H0v0c0-3.3,2.7-6,6-6h0L5.6,1.3c-0.4,1.1-0.4,2.4,0,3.5L6,6z"/></g>
<g transform="translate(384,624) scale(4.12)"><circle cx="3" cy="3" r="3"/></g>
<g transform="translate(456,624) scale(4.12)"><circle cx="3" cy="3" r="3"/></g>
<g transform="translate(528,624) scale(4.12)"><path d="M6,6H3C1.3,6,0,4.7,0,3V0l6,0V6z"/></g>
<g transform="translate(552,624) scale(4.12)"><rect width="6" height="6"/></g>
<g transform="translate(576,624) scale(4.12)"><rect width="6" height="6"/></g>
<g transform="translate(600,624) scale(4.12)"><rect width="6" height="6"/></g>
<g transform="translate(624,624) scale(4.12)"><path d="M3,6H0V0l6,0v3C6,4.7,4.7,6,3,6z"/></g>
<g transform="translate(672,624) scale(4.12)"><path d="M6,6H0V3c0-1.7,1.3-3,3-3l3,0V6z"/></g>
<g transform="translate(696,624) scale(4.12)"><rect width="6" height="6"/></g>
<g transform="translate(720,624) scale(4.12)"><path d="M6,6H0V0l3,0c1.7,0,3,1.3,3,3V6z"/></g>
<g transform="translate(240,648) scale(4.12)"><rect width="6" height="6"/></g>
<g transform="translate(264,648) scale(4.12)"><path d="M0,0v6l1.3-0.4c1.1-0.4,2.4-0.4,3.5,0L6,6C6,2.7,3.3,0,0,0z"/></g>
<g transform="translate(336,648) scale(4.12)"><path d="M0,0l0.4,1.3c0.4,1.1,0.4,2.4,0,3.5L0,6c3.3,0,6-2.7,6-6H0z"/></g>
<g transform="translate(504,648) scale(4.12)"><path d="M6,6H0v0c0-3.3,2.7-6,6-6h0L5.6,1.3c-0.4,1.1-0.4,2.4,0,3.5L6,6z"/></g>
<g transform="translate(648,648) scale(4.12)"><path d="M6,6H0V3c0-1.7,1.3-3,3-3l3,0V6z"/></g>
<g transform="translate(672,648) scale(4.12)"><rect width="6" height="6"/></g>
<g transform="translate(696,648) scale(4.12)"><rect width="6" height="6"/></g>
<g transform="translate(720,648) scale(4.12)"><path d="M3,6H0V0l6,0v3C6,4.7,4.7,6,3,6z"/></g>
<g transform="translate(240,672) scale(4.12)"><path d="M0,0l0.4,1.3c0.4,1.1,0.4,2.4,0,3.5L0,6c3.3,0,6-2.7,6-6H0z"/></g>
<g transform="translate(288,672) scale(4.12)"><path d="M6,6H0V3c0-1.7,1.3-3,3-3l3,0V6z"/></g>
<g transform="translate(312,672) scale(4.12)"><path d="M0,0v6l1.3-0.4c1.1-0.4,2.4-0.4,3.5,0L6,6C6,2.7,3.3,0,0,0z"/></g>
<g transform="translate(408,672) scale(4.12)"><path d="M6,6H0v0c0-3.3,2.7-6,6-6h0L5.6,1.3c-0.4,1.1-0.4,2.4,0,3.5L6,6z"/></g>
<g transform="translate(456,672) scale(4.12)"><path d="M4.7,0.4c-1.1,0.4-2.4,0.4-3.5,0L0,0c0,3.3,2.7,6,6,6V0L4.7,0.4z"/></g>
<g transform="translate(480,672) scale(4.12)"><rect width="6" height="6"/></g>
<g transform="translate(504,672) scale(4.12)"><rect width="6" height="6"/></g>
<g transform="translate(552,672) scale(4.12)"><path d="M4.7,0.4c-1.1,0.4-2.4,0.4-3.5,0L0,0c0,3.3,2.7,6,6,6V0L4.7,0.4z"/></g>
<g transform="translate(576,672) scale(4.12)"><rect width="6" height="6"/></g>
<g transform="translate(600,672) scale(4.12)"><rect width="6" height="6"/></g>
<g transform="translate(624,672) scale(4.12)"><rect width="6" height="6"/></g>
<g transform="translate(648,672) scale(4.12)"><rect width="6" height="6"/></g>
<g transform="translate(672,672) scale(4.12)"><rect width="6" height="6"/></g>
<g transform="translate(696,672) scale(4.12)"><rect width="6" height="6"/></g>
<g transform="translate(264,696) scale(4.12)"><path d="M6,6H0V3c0-1.7,1.3-3,3-3l3,0V6z"/></g>
<g transform="translate(288,696) scale(4.12)"><rect width="6" height="6"/></g>
<g transform="translate(336,696) scale(4.12)"><path d="M6,6H0v0c0-3.3,2.7-6,6-6h0L5.6,1.3c-0.4,1.1-0.4,2.4,0,3.5L6,6z"/></g>
<g transform="translate(384,696) scale(4.12)"><path d="M6,6H0V3c0-1.7,1.3-3,3-3l3,0V6z"/></g>
<g transform="translate(408,696) scale(4.12)"><rect width="6" height="6"/></g>
<g transform="translate(432,696) scale(4.12)"><path d="M0,0v6l1.3-0.4c1.1-0.4,2.4-0.4,3.5,0L6,6C6,2.7,3.3,0,0,0z"/></g>
<g transform="translate(504,696) scale(4.12)"><rect width="6" height="6"/></g>
<g transform="translate(528,696) scale(4.12)"><path d="M0,0v6l1.3-0.4c1.1-0.4,2.4-0.4,3.5,0L6,6C6,2.7,3.3,0,0,0z"/></g>
<g transform="translate(576,696) scale(4.12)"><path d="M0,0l0.4,1.3c0.4,1.1,0.4,2.4,0,3.5L0,6c3.3,0,6-2.7,6-6H0z"/></g>
<g transform="translate(624,696) scale(4.12)"><rect width="6" height="6"/></g>
<g transform="translate(648,696) scale(4.12)"><path d="M3,6H0V0l6,0v3C6,4.7,4.7,6,3,6z"/></g>
<g transform="translate(696,696) scale(4.12)"><path d="M0,0l0.4,1.3c0.4,1.1,0.4,2.4,0,3.5L0,6c3.3,0,6-2.7,6-6H0z"/></g>
<g transform="translate(240,720) scale(4.12)"><path d="M4.7,0.4c-1.1,0.4-2.4,0.4-3.5,0L0,0c0,3.3,2.7,6,6,6V0L4.7,0.4z"/></g>
<g transform="translate(264,720) scale(4.12)"><rect width="6" height="6"/></g>
<g transform="translate(288,720) scale(4.12)"><rect width="6" height="6"/></g>
<g transform="translate(312,720) scale(4.12)"><rect width="6" height="6"/></g>
<g transform="translate(336,720) scale(4.12)"><rect width="6" height="6"/></g>
<g transform="translate(360,720) scale(4.12)"><rect width="6" height="6"/></g>
<g transform="translate(384,720) scale(4.12)"><rect width="6" height="6"/></g>
<g transform="translate(408,720) scale(4.12)"><path d="M3,6H0V0l6,0v3C6,4.7,4.7,6,3,6z"/></g>
<g transform="translate(456,720) scale(4.12)"><circle cx="3" cy="3" r="3"/></g>
<g transform="translate(504,720) scale(4.12)"><path d="M0,0l0.4,1.3c0.4,1.1,0.4,2.4,0,3.5L0,6c3.3,0,6-2.7,6-6H0z"/></g>
<g transform="translate(552,720) scale(4.12)"><circle cx="3" cy="3" r="3"/></g>
<g transform="translate(600,720) scale(4.12)"><path d="M4.7,0.4c-1.1,0.4-2.4,0.4-3.5,0L0,0c0,3.3,2.7,6,6,6V0L4.7,0.4z"/></g>
<g transform="translate(624,720) scale(4.12)"><path d="M3,6H0V0l6,0v3C6,4.7,4.7,6,3,6z"/></g>
<g transform="translate(672,720) scale(4.12)"><circle cx="3" cy="3" r="3"/></g>
<g transform="translate(48,48)"><g transform="scale(12)"><path d="M0,0v9.6C0,12,2,14,4.4,14h5.1C12,14,14,12,14,9.6V4.4C14,2,12,0,9.6,0H0z M9.2,12H4.8C3.3,12,2,10.7,2,9.2V2h7.2 C10.7,2,12,3.3,12,4.8v4.4C12,10.7,10.7,12,9.2,12z"/></g></g>
<g transform="translate(576,48)"><g transform="scale(12) rotate(90 7 7)"><path d="M0,0v9.6C0,12,2,14,4.4,14h5.1C12,14,14,12,14,9.6V4.4C14,2,12,0,9.6,0H0z M9.2,12H4.8C3.3,12,2,10.7,2,9.2V2h7.2 C10.7,2,12,3.3,12,4.8v4.4C12,10.7,10.7,12,9.2,12z"/></g></g>
<g transform="translate(48,576)"><g transform="scale(12) rotate(-90 7 7)"><path d="M0,0v9.6C0,12,2,14,4.4,14h5.1C12,14,14,12,14,9.6V4.4C14,2,12,0,9.6,0H0z M9.2,12H4.8C3.3,12,2,10.7,2,9.2V2h7.2 C10.7,2,12,3.3,12,4.8v4.4C12,10.7,10.7,12,9.2,12z"/></g></g>
<g transform="translate(96,96)"><g transform="scale(12)"><path d="M6,1.8C5.9,1,5.3,0.4,4.5,0.3C3.9,0.2,3.4,0.5,3,0.9C2.6,0.5,2.1,0.3,1.6,0.3C0.8,0.4,0.1,1,0,1.8 C0,2.3,0.1,2.7,0.3,3l0,0l0,0c0.1,0.1,0.2,0.2,0.3,0.3l1.9,2.2c0.3,0.3,0.7,0.3,0.9,0l1.8-1.9c0.1-0.1,0.3-0.3,0.4-0.5 C5.9,2.8,6.1,2.3,6,1.8z"/></g></g>
<g transform="translate(624,96)"><g transform="scale(12)"><path d="M6,1.8C5.9,1,5.3,0.4,4.5,0.3C3.9,0.2,3.4,0.5,3,0.9C2.6,0.5,2.1,0.3,1.6,0.3C0.8,0.4,0.1,1,0,1.8 C0,2.3,0.1,2.7,0.3,3l0,0l0,0c0.1,0.1,0.2,0.2,0.3,0.3l1.9,2.2c0.3,0.3,0.7,0.3,0.9,0l1.8-1.9c0.1-0.1,0.3-0.3,0.4-0.5 C5.9,2.8,6.1,2.3,6,1.8z"/></g></g>
<g transform="translate(96,624)"><g transform="scale(12)"><path d="M6,1.8C5.9,1,5.3,0.4,4.5,0.3C3.9,0.2,3.4,0.5,3,0.9C2.6,0.5,2.1,0.3,1.6,0.3C0.8,0.4,0.1,1,0,1.8 C0,2.3,0.1,2.7,0.3,3l0,0l0,0c0.1,0.1,0.2,0.2,0.3,0.3l1.9,2.2c0.3,0.3,0.7,0.3,0.9,0l1.8-1.9c0.1-0.1,0.3-0.3,0.4-0.5 C5.9,2.8,6.1,2.3,6,1.8z"/></g></g>
</g></svg>
